<?xml version="1.0" encoding="utf-8"?>
<!-- Generator: Adobe Illustrator 13.0.0, SVG Export Plug-In . SVG Version: 6.00 Build 14948)  -->
<!DOCTYPE svg PUBLIC "-//W3C//DTD SVG 1.1//EN" "http://www.w3.org/Graphics/SVG/1.1/DTD/svg11.dtd">
<svg version="1.1" id="Layer_1" xmlns="http://www.w3.org/2000/svg" xmlns:xlink="http://www.w3.org/1999/xlink" x="0px" y="0px"
	 width="400px" height="84px" viewBox="0 0 400 84" enable-background="new 0 0 400 84" xml:space="preserve">
<path fill="#CED4DA" d="M41,58c-2,0-4,0-6,0c-4.511-9.001-5.716-8.391-19-8c0.463-2.391,1.158-3.145,2-5c3.104,0.11,7.411,0.47,9-1
	c-2.069-1.696-5.263-7.04-6-10c-1.139,1.139-0.398,0.003-1,2c-3.269,2.287-3.777,6.635-6,10c-0.667,0.333-1.333,0.667-2,1
	c-0.333,1.333-0.667,2.667-1,4c-0.667,0.333-1.333,0.667-2,1c0,0.667,0,1.333,0,2c-0.333,0-0.667,0-1,0c0,0.667,0,1.333,0,2
	c-0.333,0-0.667,0-1,0c0,0.333,0,0.667,0,1c-0.333,0-0.667,0-1,0c0,0.333,0,0.667,0,1c-2,0-4,0-6,0c0-0.333,0-0.667,0-1
	c1.876-1.65,3.765-4.829,5-7c0-0.667,0-1.333,0-2c0.667-0.333,1.333-0.667,2-1c0.333-1.333,0.667-2.667,1-4
	c0.667-0.333,1.333-0.667,2-1c0.333-1.333,0.667-2.667,1-4c0.667-0.333,1.333-0.667,2-1c0-0.667,0-1.333,0-2c0.333,0,0.667,0,1,0
	c0-0.667,0-1.333,0-2c0.667-0.333,1.333-0.667,2-1c0-0.667,0-1.333,0-2c0.667-0.333,1.333-0.667,2-1c0.333-1,0.667-2,1-3
	c1,0,2,0,3,0c0.667,1,1.333,2,2,3c0.333,0,0.667,0,1,0c0.333,1.333,0.667,2.667,1,4c0.667,0.333,1.333,0.667,2,1
	c0.333,1.333,0.667,2.667,1,4c0.667,0.333,1.333,0.667,2,1c0,0.667,0,1.333,0,2c0.667,0.333,1.333,0.667,2,1
	c0.333,1.333,0.667,2.667,1,4c0.667,0.333,1.333,0.667,2,1c0.333,1.333,0.667,2.667,1,4C38.478,53.67,40.104,54.165,41,58z"/>
<path fill="#CED4DA" d="M35,26c2.021,8.522,10.873,14.768,13,24c0.667,0,1.333,0,2,0c0.205-2.252,0.111-2.655,1-4
	c0.333,0,0.667,0,1,0c0-0.667,0-1.333,0-2c0.333,0,0.667,0,1,0c0-0.667,0-1.333,0-2c0.667-0.333,1.333-0.667,2-1
	c0.333-1.333,0.667-2.667,1-4c0.667-0.333,1.333-0.667,2-1c0.333-1.333,0.667-2.667,1-4c0.667-0.333,1.333-0.667,2-1
	c0.726-1.117,0.881-4.397,2-5c2,0,4,0,6,0c-0.667,2-1.333,4-2,6c-0.667,0.333-1.333,0.667-2,1c0,0.667,0,1.333,0,2
	c-0.333,0-0.667,0-1,0c0,0.667,0,1.333,0,2c-0.667,0.333-1.333,0.667-2,1c-0.333,1.333-0.667,2.667-1,4
	c-0.667,0.333-1.333,0.667-2,1c-0.333,1.333-0.667,2.667-1,4c-0.333,0-0.667,0-1,0c-0.333,1-0.667,2-1,3
	c-0.667,0.333-1.333,0.667-2,1c-2.484,3.843-0.628,6.277-7,7c-5.684-10.988-13.695-20.572-19-32C30.333,26,32.667,26,35,26z"/>
<path fill="#CED4DA" d="M72,26c12.167-0.316,30.506-2.688,33,7c3.12,3.28-0.327,10.225-1,13c-1,0.333-2,0.667-3,1
	c0,0.333,0,0.667,0,1c-0.667,0-1.333,0-2,0c0,0.333,0,0.667,0,1c-6,0-12,0-18,0c0-1.667,0-3.333,0-5c1.134-0.844,0.146,0.127,1-1
	c5.333,0,10.667,0,16,0c1.339-2.523,1.99-3.504,2-8c-1.139-1.139-0.398-0.003-1-2c-5.666-1.016-13.849-1.011-21-1
	c0,8.666,0,17.334,0,26c-2,0-4,0-6,0C72,47.334,72,36.666,72,26z"/>
<path fill="#CED4DA" d="M152,58c-2,0-4,0-6,0c-1.667-2.667-3.333-5.333-5-8c-6.333,0-12.667,0-19,0c-0.64,1.305-1.61,1.393-2,2
	c0,0.667,0,1.333,0,2c-2.122,3.578-3.153,4.099-9,4c0-0.333,0-0.667,0-1c1.955-1.796,0.841-1.941,2-4c0.333,0,0.667,0,1,0
	c0-0.667,0-1.333,0-2c0.667-0.333,1.333-0.667,2-1c0-0.667,0-1.333,0-2c0.333,0,0.667,0,1,0c0-0.667,0-1.333,0-2
	c0.667-0.333,1.333-0.667,2-1c0.333-1.333,0.667-2.667,1-4c0.667-0.333,1.333-0.667,2-1c0.333-1.333,0.667-2.667,1-4
	c0.667-0.333,1.333-0.667,2-1c0-0.667,0-1.333,0-2c0.333,0,0.667,0,1,0c0-0.667,0-1.333,0-2c0.667-0.333,1.333-0.667,2-1
	c0-0.667,0-1.333,0-2c0.333,0,0.667,0,1,0c1.553-1.676,0.823-1.607,4-2c0.667,1,1.333,2,2,3c0.333,0,0.667,0,1,0
	c0.333,1.333,0.667,2.667,1,4c0.667,0.333,1.333,0.667,2,1c0.333,1.333,0.667,2.667,1,4c0.667,0.333,1.333,0.667,2,1
	c0,0.667,0,1.333,0,2c0.667,0.333,1.333,0.667,2,1c0.333,1.333,0.667,2.667,1,4c0.667,0.333,1.333,0.667,2,1
	c0.333,1.333,0.667,2.667,1,4C149.478,53.67,151.104,54.165,152,58z"/>
<path fill="#CED4DA" d="M157,26c-0.049,8.089,0.645,16.245,1,23c3.851,2.24,3.142,3.039,10,3c1.283,0.967,4.422,0.143,8,0
	c0.781-1.432,2.771-4.011,4-5c0-6.999,0-14,0-21c1.667,0,3.333,0,5,0c1.87,5.03,1.05,14.316,1,21c-1.278,1.249-2.562,4.867-3,7
	c-3.786,1.764-13.39,6.472-21,4c-2.22-0.721-4.215-2.377-7-3c-0.597-1.106-1.736-1.564-2-2c0-0.667,0-1.333,0-2
	c-0.333,0-0.667,0-1,0c-2.165-5.278-1.024-16.942-1-24C152.719,26.35,154.14,26.048,157,26z"/>
<path fill="#CED4DA" d="M187,26c9.999,0,20.001,0,30,0c0,2,0,4,0,6c-4,0-8,0-12,0c0,8.333,0,16.667,0,25c-1.719,0.65-3.14,0.953-6,1
	c0-8.666,0-17.334,0-26c-4,0-8,0-12,0C187,30,187,28,187,26z"/>
<path fill="#CED4DA" d="M251,54c-1,0.333-2,0.667-3,1c0,0.333,0,0.667,0,1c-0.667,0-1.333,0-2,0c0,0.333,0,0.667,0,1
	c-2.026,0.892-13.703,2.074-17,1c-2.808-0.914-4.906-3.188-8-4c-0.663-2.273-0.871-2.404-2-4c-0.333,0-0.667,0-1,0c0-1,0-2,0-3
	c-0.333,0-0.667,0-1,0c0-2,0-4,0-6c0.084-11.224,7.667-14.999,19-15c2.333,0,4.667,0,7,0c2.219,0.73,4.222,2.357,7,3
	c1.667,2.333,3.333,4.667,5,7c0.163,4.7,1.497,6.891,0,11c-0.333,0-0.667,0-1,0c0,1,0,2,0,3c-0.333,0-0.667,0-1,0
	C251.875,51.594,251.632,51.712,251,54z"/>
<path fill="#CED4DA" d="M258,26c2,0,4,0,6,0c0,8.666,0,17.334,0,26c6.999,0,14,0,21,0c0,2,0,4,0,6c-8.666,0-17.334,0-26,0
	C256.124,50.212,257.947,35.667,258,26z"/>
<path fill="#CED4DA" d="M328,58c-2.333,0-4.667,0-7,0c-0.877-3.6-3.048-4.421-4-8c-6.333,0-12.667,0-19,0
	c-1.667,2.667-3.333,5.333-5,8c-2,0-4,0-6,0c0.667-2,1.333-4,2-6c0.667-0.333,1.333-0.667,2-1c0-0.667,0-1.333,0-2
	c0.333,0,0.667,0,1,0c0-0.667,0-1.333,0-2c0.667-0.333,1.333-0.667,2-1c0.333-1.333,0.667-2.667,1-4c0.667-0.333,1.333-0.667,2-1
	c0.333-1.333,0.667-2.667,1-4c0.333,0,0.667,0,1,0c0.333-1,0.667-2,1-3c0.667-0.333,1.333-0.667,2-1c2.483-3.843,0.628-6.277,7-7
	c0.664,1.263,1.584,1.375,2,2c0,0.667,0,1.333,0,2c0.667,0.333,1.333,0.667,2,1c0.333,1.333,0.667,2.667,1,4
	c0.667,0.333,1.333,0.667,2,1c0.333,1.333,0.667,2.667,1,4c0.667,0.333,1.333,0.667,2,1c0,0.667,0,1.333,0,2c0.333,0,0.667,0,1,0
	c0,0.667,0,1.333,0,2c0.667,0.333,1.333,0.667,2,1c0.333,1.333,0.667,2.667,1,4c0.667,0.333,1.333,0.667,2,1c0,0.667,0,1.333,0,2
	c0.333,0,0.667,0,1,0c0,0.667,0,1.333,0,2c0.333,0,0.667,0,1,0C327.333,56,327.667,57,328,58z"/>
<path fill="#CED4DA" d="M363,26c0,10.333,0,20.668,0,31c-1.604,0.605-2.375,0.881-5,1c-2.361-4.122-6.735-6.735-10-10
	c-3.868-3.868-7.156-9.197-12-12c0,7,0,14.001,0,21c-1.719,0.65-3.14,0.953-6,1c0-10.332,0-20.667,0-31c1.604-0.605,2.375-0.881,5-1
	c2.361,4.122,6.735,6.735,10,10c3.868,3.868,7.156,9.197,12,12c0-6.999,0-14,0-21C358.719,26.35,360.14,26.048,363,26z"/>
<path fill="#CED4DA" d="M366,26c10.004-0.18,22.006-1.04,28,3c1.667,2,3.333,4,5,6c0.333,3.333,0.667,6.667,1,10
	c-4.489,14.063-15.584,13.363-34,13C366,47.334,366,36.666,366,26z"/>
<path fill="#FFFFFF" d="M229,32c-1.987,2.356-4.035,2.348-5,6c-1.67,1.751-1.195,8.167,0,10c0.333,0,0.667,0,1,0
	c1.375,1.714,2.679,2.473,4,4c5.679,0.071,11.726-0.198,16-1c0.667-1,1.333-2,2-3c0.333,0,0.667,0,1,0c0-0.667,0-1.333,0-2
	c0.333,0,0.667,0,1,0c2.875-7.791-3.657-11.226-6-14C238.333,32,233.666,32,229,32z"/>
<path fill="#FFFFFF" d="M372,32c0,6.666,0,13.334,0,20c6.253,0.072,13.192-0.101,18-1c2.337-4.263,3.939-4.916,4-12
	c-0.333,0-0.667,0-1,0c0-0.667,0-1.333,0-2c-0.714-1.609-1.557-2.126-3-3C386.992,30.948,377.974,31.887,372,32z"/>
<path fill="#FFFFFF" d="M131,34c-0.901,3.904-4.19,7.739-6,11c4.333,0,8.667,0,13,0c0-0.333,0-0.667,0-1
	C134.595,41.705,134.048,36.629,131,34z"/>
<path fill="#FFFFFF" d="M306,35c-0.819,4.097-3.357,6.49-5,10c4,0,8,0,12,0c-1.667-3.333-3.333-6.667-5-10
	C307.333,35,306.667,35,306,35z"/>
</svg>
