<?xml version="1.0" encoding="utf-8"?>
<!-- Generator: Adobe Illustrator 13.0.0, SVG Export Plug-In . SVG Version: 6.00 Build 14948)  -->
<!DOCTYPE svg PUBLIC "-//W3C//DTD SVG 1.1//EN" "http://www.w3.org/Graphics/SVG/1.1/DTD/svg11.dtd">
<svg version="1.1" id="Ebene_1" xmlns="http://www.w3.org/2000/svg" xmlns:xlink="http://www.w3.org/1999/xlink" x="0px" y="0px"
	 width="1000px" height="105px" viewBox="0 0 1000 105" enable-background="new 0 0 1000 105" xml:space="preserve">
<g id="HFuZMx_1_">
</g>
<g>
	<path fill="#CED4DA" d="M322.308,100.961V4.039h26.25v78.346h33.115v18.576H322.308z"/>
	<path fill="#CED4DA" d="M470.115,55.327c0,15.346-0.403,19.384-1.211,23.019c-4.442,15.75-20.597,25.039-42.809,25.039
		c-16.961,0-29.076-5.25-34.73-15.346c-3.635-6.866-4.038-10.097-4.038-30.693V4.039h26.25v54.519c0,14.135,0,15.347,1.615,18.981
		c2.02,4.846,6.865,7.672,13.327,7.672c5.653,0,10.5-2.422,12.923-6.461c2.827-4.039,3.23-6.058,3.23-20.192V4.039h25.442V55.327z"
		/>
	<path fill="#CED4DA" d="M545.635,22.211h-34.73v20.596h31.903v17.77h-31.903v21.808h36.75v18.576h-62.597V4.039h60.577V22.211z"/>
	<g>
		<path fill="#CED4DA" d="M675.673,89.25c0,8.077-6.461,14.539-14.135,14.539c-7.673,0-14.538-6.462-14.538-14.135
			c0-7.674,6.865-14.539,14.135-14.539C669.615,75.115,675.673,81.173,675.673,89.25z"/>
	</g>
	<path fill="#CED4DA" d="M629.23,25.846c-8.885-3.635-16.558-5.25-24.23-5.25c-15.75,0-23.423,9.289-23.423,31.096
		c0,19.788,7.673,32.712,19.788,32.712c4.847,0,8.077-0.809,12.52-3.231V50.481h24.23V89.25
		c-13.73,9.289-27.865,14.135-40.385,14.135c-27.058,0-42.808-18.577-42.808-50.885c0-33.115,16.962-50.077,48.462-50.077
		c10.5,0,19.788,1.212,30.692,4.442L629.23,25.846z"/>
</g>
</svg>
