<?xml version="1.0" encoding="utf-8"?>
<!-- Generator: Adobe Illustrator 13.0.0, SVG Export Plug-In . SVG Version: 6.00 Build 14948)  -->
<!DOCTYPE svg PUBLIC "-//W3C//DTD SVG 1.1//EN" "http://www.w3.org/Graphics/SVG/1.1/DTD/svg11.dtd">
<svg version="1.1" id="Ebene_1" xmlns="http://www.w3.org/2000/svg" xmlns:xlink="http://www.w3.org/1999/xlink" x="0px" y="0px"
	 width="1000px" height="105px" viewBox="0 0 1000 105" enable-background="new 0 0 1000 105" xml:space="preserve">
<g>
	<path fill="#CED4DA" d="M440.31,99.951c-10.958,0-23.233-1.476-32.139-3.848l2.423-19.49c8.485,3.791,19.021,5.848,29.716,5.848
		c8.166,0,13.435-1.264,16.069-3.898c1.317-1.317,2-3.058,2-5.061c0-7.164-9.005-9.429-19.49-12.063
		c-14.174-3.583-31.876-8.005-31.876-26.975c0-6.217,2.16-11.536,6.375-15.75c10.223-10.222,29.924-11.75,40.725-11.75
		c8.643,0,17.387,0.948,24.5,2.529l-2.264,17.702c-6.167-1.845-13.12-2.795-20.233-2.795c-3.741,0-8.586,0.161-12.538,1.267
		c-4.742,1.317-7.114,3.794-7.114,7.322c0,6.009,8.485,8.012,18.283,10.276c14.699,3.421,33.034,7.689,33.034,27.078
		C487.883,94.841,462.015,99.951,440.31,99.951"/>
	<path fill="#CED4DA" d="M589.777,96c-9.537-2.951-17.282-7.376-23.025-13.115c-7.639-7.643-11.536-17.388-11.536-28.98
		c0-12.326,3.845-22.391,11.378-29.921c5.743-5.746,13.751-10.064,23.707-12.911c9.379-2.634,20.55-4.004,33.299-4.004
		c2.896,0,13.012,0.158,23.126,1.791l-2.685,17.755c-5.27-1.368-11.273-2.161-16.386-2.161c-12.487,0-22.971,2.318-30.294,6.744
		c-8.428,5.058-12.695,12.699-12.695,22.707c0,7.271,2.58,13.696,7.48,18.6c6.479,6.479,16.805,10.062,28.977,10.062
		c4.109,0,7.746-0.579,10.326-1.58l0.157-0.054v-18.23h-16.858l6.271-16.647h36.931v49.895c-18.754,3.952-31.349,3.952-40.566,3.952
		C607.688,99.951,598.151,98.584,589.777,96"/>
	<path fill="#CED4DA" d="M569.914,53.272l-7.322-7.534c-4.375,8.905-9.326,17.703-15.861,25.236l-19.333-23.391l-5.058-6.637
		c-3.215-4.795-8.534-11.855-8.534-17.81c0-6.005,3.582-9.691,9.587-9.691c3.952,0,6.798,2.581,8.166,5.793h10.8
		c-2.368-8.746-12.803-12.17-21.492-12.17c-11.856,0-24.235,7.586-24.235,20.336c0,9.063,4.687,15.33,9.587,22.393
		c0.947,1.368,3.636,5.054,4.006,5.371c7.584,9.853,15.434,19.547,23.55,28.98c-3.059,3.212-9.168,5.476-13.594,5.476
		c-2.372,0-4.953,0-7.164-0.947c-3.743-1.476-6.113-2.949-8.693-6.111c-2.426-3.055-4.267-7.585-4.267-11.432
		c0-5.005,2.633-9.326,6.108-12.7c-1.524-1.841-2.896-3.79-4.634-6.055c-9.693,5.215-18.965,13.274-18.965,25.025
		c0,6.533,2.264,11.96,7.479,16.227c5.744,4.638,12.013,6.372,19.178,6.372c9.587,0,21.019-4.9,28.237-11.167l6.798,8.852
		l25.604,0.157c-6.532-6.794-12.538-14.959-18.547-21.495C558.217,69.133,564.225,61.385,569.914,53.272"/>
</g>
</svg>
